<svg xmlns="http://www.w3.org/2000/svg" viewBox="0 0 100 100" xml:space="preserve">
	<path fill="#F29D00" d="m58.482 31.412 3.537-6.509 3.538 6.509z" />
	<path fill="#F29D00" d="m64.649 31.076 5.761-4.364.677 7.482z" />
	<path fill="#F29D00" d="m69.963 33.518 7.068-.36-3.24 6.68z" />
	<path fill="#F29D00" d="m73.271 38.434 6.576 2.776-5.552 4.66z" />
	<path fill="#F29D00" d="m74.57 44.201 4.63 5.683-6.949 1.418zM50.915 47.469l-6.147-3.723 6.11-3.791z" />
	<path fill="#F29D00" d="m54.198 52.643-7.076.02 3.522-6.518zM50.667 40.435l-3.168-6.72 7.064.446z" />
	<path fill="#F29D00" d="m53.338 34.769-.155-7.513 6.203 3.614zM64.228 55.462l-3.577 5.86-2.99-6.22z" />
	<path fill="#F29D00" d="m58.717 54.975-5.544 3.757-.291-6.977zM69.29 53.504l-.796 6.932-5.254-4.199z" />
	<path fill="#F29D00" d="m72.809 49.879 1.828 6.708-6.384-1.673z" />
	<path fill="#F1C600"
		d="M74.509 43.258c0 7.083-5.407 12.825-12.075 12.825-6.669 0-12.075-5.742-12.075-12.825 0-4.879 2.566-9.122 6.343-11.29a11.467 11.467 0 0 1 5.732-1.535c6.669 0 12.075 5.742 12.075 12.825z" />
	<path fill="#217EBA"
		d="M53.162 44.172a8.646 8.646 0 0 0-4.045.999c-1.653-3.708-5.649-6.326-10.318-6.326-5.87 0-10.675 4.134-11.099 9.375a10.137 10.137 0 0 0-2.7-.366c-5.557 0-10.062 4.464-10.062 9.97s4.505 9.97 10.062 9.97c2.415 0 4.631-.844 6.365-2.249 1.318 4.509 5.602 7.815 10.688 7.815 6.136 0 11.109-4.808 11.109-10.74 0-.383-.022-.762-.062-1.135l.062.002c4.791 0 8.675-3.876 8.675-8.657s-3.884-8.658-8.675-8.658z" />
	<path fill="#217EBA"
		d="M78.54 52.895a6.612 6.612 0 0 0-3.119.696c-1.211-2.875-4.236-4.953-7.819-5.034-4.504-.104-8.254 2.984-8.662 6.998a7.807 7.807 0 0 0-2.066-.328c-4.263-.097-7.79 3.248-7.875 7.473-.086 4.225 3.302 7.728 7.565 7.825a7.727 7.727 0 0 0 4.919-1.613c.941 3.482 4.177 6.094 8.079 6.183 4.708.108 8.599-3.495 8.691-8.046a8.142 8.142 0 0 0-.03-.872l.048.002c3.676.084 6.716-2.821 6.79-6.49.074-3.667-2.846-6.71-6.521-6.794z" />
	<g fill="#3B96D2">
		<path
			d="M50.901 65.109c.086-4.224 3.611-7.57 7.876-7.473a7.82 7.82 0 0 1 2.066.328c.406-4.014 4.157-7.101 8.661-6.998 3.583.082 6.608 2.159 7.818 5.034a6.63 6.63 0 0 1 3.12-.695 6.655 6.655 0 0 1 4.444 1.831 6.68 6.68 0 0 0-6.194-4.599 6.633 6.633 0 0 0-3.119.696c-1.211-2.875-4.236-4.953-7.819-5.034-4.504-.104-8.255 2.984-8.662 6.998a7.772 7.772 0 0 0-2.065-.328c-4.264-.098-7.79 3.248-7.875 7.472a7.609 7.609 0 0 0 2.205 5.513 7.557 7.557 0 0 1-.456-2.745zM63.386 71.322a7.727 7.727 0 0 1-.251.185c.156.196.322.385.496.567a7.856 7.856 0 0 1-.245-.752z" />
	</g>
	<path fill="#3B96D2"
		d="M15.713 61.01c0-5.506 4.505-9.97 10.062-9.97.936 0 1.84.13 2.7.366.423-5.24 5.229-9.374 11.098-9.374 4.671 0 8.666 2.617 10.319 6.326a8.643 8.643 0 0 1 4.045-.999 8.675 8.675 0 0 1 7.895 5.07c-.21-4.594-4.008-8.256-8.665-8.256a8.646 8.646 0 0 0-4.045.999c-1.653-3.708-5.649-6.326-10.319-6.326-5.869 0-10.674 4.134-11.099 9.375a10.135 10.135 0 0 0-2.699-.366c-5.557 0-10.062 4.464-10.062 9.97 0 1.383.284 2.699.798 3.897a9.92 9.92 0 0 1-.028-.712z" />
</svg>