<svg width="100" height="100" viewBox="0 0 100 100" fill="none" xmlns="http://www.w3.org/2000/svg">
<g clip-path="url(#clip0_186_60)">
<path fill-rule="evenodd" clip-rule="evenodd" d="M85.089 70.0569H14.5772C13.3937 70.0569 12.4356 69.0855 12.4356 67.8855C12.4356 66.6856 13.3937 65.7141 14.5772 65.7141H85.089C86.2725 65.7141 87.2306 66.6856 87.2306 67.8855C87.2306 69.0855 86.2725 70.0569 85.089 70.0569Z" fill="#F2F2F2"/>
<path fill-rule="evenodd" clip-rule="evenodd" d="M85.089 80.3704H14.5772C13.3937 80.3704 12.4356 79.3989 12.4356 78.199C12.4356 76.9991 13.3937 76.0276 14.5772 76.0276H85.089C86.2725 76.0276 87.2306 76.9991 87.2306 78.199C87.2306 79.3989 86.2725 80.3704 85.089 80.3704Z" fill="#F2F2F2"/>
<path fill-rule="evenodd" clip-rule="evenodd" d="M61.2094 90.1365H14.5763C13.3928 90.1365 12.4347 89.1651 12.4347 87.9651C12.4347 86.7652 13.3928 85.7937 14.5763 85.7937H61.2094C62.3928 85.7937 63.351 86.7652 63.351 87.9651C63.351 89.1651 62.3928 90.1365 61.2094 90.1365Z" fill="#F2F2F2"/>
<path fill-rule="evenodd" clip-rule="evenodd" d="M20.6217 33.5802C13.6632 33.5802 7.99978 39.378 7.99978 46.5066C7.99978 53.6308 13.6632 59.4309 20.6217 59.4309H75.4995C84.2363 59.4309 91.3413 52.1514 91.3413 43.2041C91.3413 34.2567 84.2363 26.9772 75.4995 26.9772C73.8742 26.9772 72.2576 27.2345 70.7001 27.738L69.6851 28.0685L69.3263 27.0393C65.9729 17.3822 57.0085 10.8945 47.0226 10.8945C34.8142 10.8945 24.6817 20.2633 23.4523 32.6863L23.3385 33.8375L22.2185 33.6955C21.5973 33.6157 21.0898 33.5802 20.6217 33.5802Z" fill="white"/>
</g>
<defs>
<clipPath id="clip0_186_60">
<rect width="84" height="81" fill="white" transform="translate(8 10)"/>
</clipPath>
</defs>
</svg>
