<svg width="100" height="100" viewBox="0 0 100 100" fill="none" xmlns="http://www.w3.org/2000/svg">
<g clip-path="url(#clip0_186_6)">
<path fill-rule="evenodd" clip-rule="evenodd" d="M31.1531 69.1921C31.1531 69.1921 28.3649 77.0071 29.097 80.0043C29.702 82.4841 32.1811 84.0187 34.6274 83.4271C37.0824 82.8334 38.5707 80.3361 37.9657 77.8584C37.2336 74.8591 31.1531 69.1921 31.1531 69.1921Z" fill="#38A1E8"/>
<path fill-rule="evenodd" clip-rule="evenodd" d="M48.7439 68.958C48.7439 68.958 45.9557 76.773 46.6878 79.7723C47.2928 82.25 49.7719 83.7846 52.2181 83.193C54.6731 82.5992 56.1615 80.102 55.5565 77.6243C54.8244 74.6249 48.7439 68.958 48.7439 68.958Z" fill="#38A1E8"/>
<path fill-rule="evenodd" clip-rule="evenodd" d="M67.0227 68.7151C67.0227 68.7151 64.2345 76.53 64.9666 79.5272C65.5716 82.0071 68.0507 83.5417 70.4969 82.9501C72.9519 82.3563 74.4403 79.859 73.8331 77.3814C73.101 74.382 67.0227 68.7151 67.0227 68.7151Z" fill="#38A1E8"/>
<path fill-rule="evenodd" clip-rule="evenodd" d="M20.6474 38.0252C13.6748 38.0252 7.99979 43.7314 7.99979 50.7474C7.99979 57.759 13.6748 63.4674 20.6474 63.4674H75.6373C84.392 63.4674 91.5116 56.303 91.5116 47.497C91.5116 38.691 84.392 31.5266 75.6373 31.5266C74.0087 31.5266 72.3888 31.7798 70.8281 32.2753L69.8111 32.6006L69.4516 31.5877C66.0913 22.0831 57.1086 15.698 47.1023 15.698C34.8689 15.698 24.7157 24.9188 23.4838 37.1455L23.3699 38.2784L22.2476 38.1387C21.6251 38.0601 21.1165 38.0252 20.6474 38.0252Z" fill="white"/>
</g>
<defs>
<clipPath id="clip0_186_6">
<rect width="84" height="69" fill="white" transform="translate(8 15)"/>
</clipPath>
</defs>
</svg>
