<svg width="100" height="100" viewBox="0 0 100 100" fill="none" xmlns="http://www.w3.org/2000/svg">
<g clip-path="url(#clip0_186_35)">
<path fill-rule="evenodd" clip-rule="evenodd" d="M22.8704 61.8792C22.8704 61.8792 20.1431 69.1638 20.8249 71.9455C21.3868 74.2462 23.7521 75.6559 26.1027 75.0891C28.4575 74.5202 29.9011 72.1902 29.3371 69.8896C28.6574 67.1058 22.8704 61.8792 22.8704 61.8792Z" fill="#38A1E8"/>
<path fill-rule="evenodd" clip-rule="evenodd" d="M39.7304 61.5405C39.7304 61.5405 37.0032 68.8252 37.685 71.6069C38.2468 73.9076 40.6122 75.3172 42.9628 74.7504C45.3175 74.1815 46.7612 71.8516 46.1972 69.551C45.5175 66.7672 39.7304 61.5405 39.7304 61.5405Z" fill="#38A1E8"/>
<path fill-rule="evenodd" clip-rule="evenodd" d="M57.2498 61.189C57.2498 61.189 54.5225 68.4737 55.2043 71.2553C55.7662 73.556 58.1315 74.9657 60.4821 74.3989C62.8369 73.83 64.2805 71.5001 63.7165 69.1994C63.0368 66.4156 57.2498 61.189 57.2498 61.189Z" fill="#38A1E8"/>
<path fill-rule="evenodd" clip-rule="evenodd" d="M73.7534 60.3716C73.7534 60.3716 71.0261 67.6563 71.7079 70.438C72.2698 72.7386 74.6351 74.1483 76.9857 73.5815C79.3405 73.0126 80.7841 70.6827 80.2201 68.382C79.5404 65.5982 73.7534 60.3716 73.7534 60.3716Z" fill="#38A1E8"/>
<path fill-rule="evenodd" clip-rule="evenodd" d="M32.7609 77.2583C32.7609 77.2583 30.0337 84.543 30.7155 87.3247C31.2774 89.6253 33.6427 91.035 35.9933 90.4682C38.3481 89.8993 39.7917 87.5694 39.2277 85.2687C38.548 82.485 32.7609 77.2583 32.7609 77.2583Z" fill="#38A1E8"/>
<path fill-rule="evenodd" clip-rule="evenodd" d="M50.2803 76.9065C50.2803 76.9065 47.553 84.1912 48.2348 86.9729C48.7967 89.2735 51.162 90.6832 53.5126 90.1164C55.8674 89.5475 57.311 87.2176 56.7471 84.9169C56.0673 82.1331 50.2803 76.9065 50.2803 76.9065Z" fill="#38A1E8"/>
<path fill-rule="evenodd" clip-rule="evenodd" d="M66.7839 76.0891C66.7839 76.0891 64.0566 83.3738 64.7384 86.1555C65.3003 88.4561 67.6656 89.8658 70.0162 89.299C72.371 88.7301 73.8146 86.4002 73.2506 84.0996C72.5709 81.3158 66.7839 76.0891 66.7839 76.0891Z" fill="#38A1E8"/>
<path fill-rule="evenodd" clip-rule="evenodd" d="M88.9602 34.0865C95.0208 34.0865 99.9514 39.0517 99.9514 45.1589C99.9514 51.2619 95.0208 56.2271 88.9602 56.2271H41.1719C33.5667 56.2271 27.3777 49.9924 27.3777 42.3291C27.3777 34.6659 33.5667 28.4311 41.1719 28.4311C42.5882 28.4311 43.996 28.6507 45.3512 29.0837L46.2372 29.366L46.5486 28.4855C49.4695 20.2136 57.2746 14.6565 65.9699 14.6565C76.6012 14.6565 85.4249 22.6795 86.496 33.321L86.5949 34.3061L87.5713 34.1848C88.1101 34.1179 88.552 34.0865 88.9602 34.0865Z" fill="#D9D9D9"/>
<path fill-rule="evenodd" clip-rule="evenodd" d="M12.142 32.0413C5.44802 32.0413 -0.000213623 37.5084 -0.000213623 44.2305C-0.000213623 50.9484 5.44802 56.4177 12.142 56.4177H64.9345C73.3394 56.4177 80.1744 49.5534 80.1744 41.1163C80.1744 32.6792 73.3394 25.8149 64.9345 25.8149C63.371 25.8149 61.8159 26.0575 60.3175 26.5323L59.3411 26.8439L58.996 25.8734C55.77 16.767 47.1462 10.6494 37.5398 10.6494C25.7952 10.6494 16.0478 19.4839 14.8651 31.1984L14.7557 32.2839L13.6782 32.15C13.0806 32.0747 12.5924 32.0413 12.142 32.0413Z" fill="white"/>
</g>
<defs>
<clipPath id="clip0_186_35">
<rect width="100" height="81" fill="white" transform="translate(0 10)"/>
</clipPath>
</defs>
</svg>
