<svg width="100" height="100" viewBox="0 0 100 100" fill="none" xmlns="http://www.w3.org/2000/svg">
<path fill-rule="evenodd" clip-rule="evenodd" d="M81.8517 53.2616C81.7039 52.6864 81.3401 52.2021 80.8239 51.8997C80.3101 51.595 79.7053 51.5109 79.1232 51.6587L64.5648 55.5603L54.9357 50.0011L64.5648 44.4397L79.1573 48.3482C80.3578 48.6233 81.5402 47.923 81.8471 46.7566C82.0063 46.1745 81.9267 45.5674 81.6243 45.0468C81.3219 44.5261 80.8399 44.16 80.2714 44.0145L70.0512 41.2725L79.9804 35.545C81.0331 34.9061 81.3833 33.5715 80.7739 32.5051C80.1623 31.4342 78.7867 31.0613 77.7135 31.6752L67.8162 37.3981L70.556 27.171C70.706 26.5981 70.6174 25.9774 70.3172 25.4658C70.0126 24.9497 69.5283 24.5859 68.953 24.4381C67.7798 24.1379 66.5588 24.8473 66.2314 26.0228L62.3321 40.5653L52.703 46.1268V35.0039L63.3575 24.3517C64.2101 23.4831 64.2078 22.0689 63.3529 21.1958C62.93 20.7706 62.3662 20.5364 61.7659 20.5364C61.1679 20.5364 60.6063 20.7706 60.1834 21.1935L52.703 28.674V17.2328C52.703 16.0027 51.6957 15 50.4589 15C49.2265 15 48.2261 16.0027 48.2261 17.2328V28.674L40.7479 21.1958C40.325 20.7706 39.7612 20.5364 39.1609 20.5364C38.5629 20.5364 37.9991 20.7729 37.5693 21.2026C36.719 22.0712 36.7235 23.4854 37.5784 24.3585L48.2261 35.0039V46.1268L38.5948 40.5653L34.6931 26.0092C34.368 24.8428 33.1493 24.1379 31.9761 24.4381C30.7824 24.7427 30.0639 25.9728 30.3708 27.1801L33.1129 37.4004L23.1996 31.6729C22.1264 31.0613 20.785 31.4251 20.1438 32.5051C19.5322 33.5783 19.896 34.9198 20.9737 35.5587L30.8779 41.2725L20.6781 44.01C20.1006 44.1555 19.614 44.517 19.3116 45.0309C19.0069 45.5447 18.9205 46.1745 19.0752 46.7634C19.3457 47.7343 20.2325 48.4096 21.2306 48.4096C21.4193 48.4096 21.6035 48.3868 21.8172 48.3368L36.3529 44.4397L45.9911 50.0011L36.362 55.5603L21.8081 51.6609C21.2352 51.5109 20.6099 51.5973 20.0983 51.9019C19.5913 52.2021 19.2207 52.6909 19.0843 53.2366C18.9228 53.8141 19.0001 54.4189 19.3003 54.9441C19.5981 55.4603 20.0915 55.84 20.6576 55.9878L30.8779 58.7275L20.96 64.4504C19.896 65.0802 19.5344 66.449 20.1552 67.4949C20.5576 68.1975 21.2852 68.6181 22.0992 68.6181C22.4902 68.6181 22.8745 68.518 23.2155 68.3248L33.122 62.5996L30.3845 72.813C30.2253 73.3883 30.3049 73.9954 30.6073 74.5183C30.9029 75.0299 31.3781 75.3982 31.9374 75.5506C32.1307 75.6097 32.3285 75.637 32.5445 75.637C33.5358 75.637 34.4248 74.9571 34.709 73.9772L38.597 59.4324L48.2261 53.8732V64.9961L37.5875 75.6415C36.7144 76.5146 36.7144 77.9334 37.5875 78.8065C38.0104 79.2294 38.572 79.4636 39.1745 79.4636C39.7748 79.4613 40.3341 79.2294 40.7548 78.8065L48.2261 71.3283V82.7672C48.2261 83.9996 49.2311 85 50.468 85C51.7003 85 52.703 83.9996 52.703 82.7672V71.326L60.1789 78.8019C60.6018 79.2294 61.1656 79.4636 61.7614 79.4636C62.3662 79.4636 62.93 79.2294 63.3484 78.8065C64.2215 77.9334 64.2215 76.5146 63.3484 75.6415L52.703 64.9961V53.8755L62.3321 59.4438L66.2269 73.9954C66.4997 74.9617 67.3865 75.637 68.3846 75.637C68.5983 75.637 68.7961 75.6097 68.9826 75.5528C69.551 75.4005 70.0262 75.0344 70.3218 74.5251C70.6219 74.009 70.7038 73.3883 70.5469 72.8199L67.8071 62.6087L77.7249 68.3316C78.066 68.5249 78.4479 68.6249 78.8299 68.6249C79.6371 68.6249 80.3601 68.2065 80.7694 67.504C81.3833 66.449 81.0195 65.0757 79.9554 64.4413L70.0512 58.7275L80.2623 55.99C80.8421 55.8377 81.3264 55.4671 81.6288 54.9441C81.9244 54.428 82.0063 53.8141 81.8517 53.2616Z" fill="#4FB4ED"/>
</svg>
